<?xml version="1.0" encoding="us-ascii" standalone="no"?><svg xmlns="http://www.w3.org/2000/svg" xmlns:xlink="http://www.w3.org/1999/xlink" contentStyleType="text/css" height="374px" preserveAspectRatio="none" style="width:637px;height:374px;background:#FFFFFF;" version="1.1" viewBox="0 0 637 374" width="637px" zoomAndPan="magnify"><defs/><g><text fill="#000000" font-family="sans-serif" font-size="14" font-weight="bold" lengthAdjust="spacing" textLength="195" x="214.395" y="22.9951">Casos de Uso MercaDaw</text><!--cluster MercaDaw--><g id="cluster_MercaDaw"><rect fill="none" height="324" rx="2.5" ry="2.5" style="stroke:#181818;stroke-width:1.0;" width="506.79" x="125" y="44.2969"/><text fill="#000000" font-family="sans-serif" font-size="14" font-weight="bold" lengthAdjust="spacing" textLength="82" x="337.395" y="59.292">MercaDaw</text></g><g id="elem_gp"><ellipse cx="249.2064" cy="94.2991" fill="#F1F1F1" rx="60.0664" ry="14.7722" style="stroke:#181818;stroke-width:0.5;"/><text fill="#000000" font-family="sans-serif" font-size="14" lengthAdjust="spacing" textLength="67" x="212.7064" y="98.0466">Gestionar</text></g><g id="elem_prod"><ellipse cx="543.0996" cy="94.2988" fill="#F1F1F1" rx="62.4096" ry="14.8819" style="stroke:#181818;stroke-width:0.5;"/><text fill="#000000" font-family="sans-serif" font-size="14" lengthAdjust="spacing" textLength="71" x="504.5996" y="98.0464">Productos</text></g><g id="elem_emple"><ellipse cx="543.0963" cy="159.2961" fill="#F1F1F1" rx="64.3963" ry="15.2793" style="stroke:#181818;stroke-width:0.5;"/><text fill="#000000" font-family="sans-serif" font-size="14" lengthAdjust="spacing" textLength="77" x="501.5963" y="163.0437">Empleados</text></g><g id="elem_c"><ellipse cx="249.209" cy="168.2987" fill="#F1F1F1" rx="108.209" ry="24.0418" style="stroke:#181818;stroke-width:0.5;"/><text fill="#000000" font-family="sans-serif" font-size="14" lengthAdjust="spacing" textLength="182" x="158.209" y="171.1453">Calcular nomina trabajador</text></g><g id="elem_ed"><ellipse cx="249.2071" cy="248.2923" fill="#F1F1F1" rx="92.7771" ry="20.9554" style="stroke:#181818;stroke-width:0.5;"/><text fill="#000000" font-family="sans-serif" font-size="14" lengthAdjust="spacing" textLength="148" x="175.2071" y="251.139">Visualizar informacion</text></g><g id="elem_edat"><ellipse cx="543.0968" cy="248.2942" fill="#F1F1F1" rx="72.6868" ry="16.9374" style="stroke:#181818;stroke-width:0.5;"/><text fill="#000000" font-family="sans-serif" font-size="14" lengthAdjust="spacing" textLength="100" x="490.0968" y="252.0418">Exportar datos</text></g><g id="elem_ie"><ellipse cx="249.209" cy="328.2987" fill="#F1F1F1" rx="108.209" ry="24.0418" style="stroke:#181818;stroke-width:0.5;"/><text fill="#000000" font-family="sans-serif" font-size="14" lengthAdjust="spacing" textLength="182" x="158.209" y="331.1453">Imprimir etiqueta producto</text></g><!--entity t--><g id="elem_t"><ellipse cx="42.5" cy="188.6469" fill="#F1F1F1" rx="8" ry="8" style="stroke:#181818;stroke-width:0.5;"/><path d="M42.5,196.6469 L42.5,223.6469 M29.5,204.6469 L55.5,204.6469 M42.5,223.6469 L29.5,238.6469 M42.5,223.6469 L55.5,238.6469 " fill="none" style="stroke:#181818;stroke-width:0.5;"/><text fill="#000000" font-family="sans-serif" font-size="14" lengthAdjust="spacing" textLength="73" x="6" y="253.142">Trabajador</text></g><!--link t to c--><g id="link_t_c"><path d="M79.16,209.5869 C105.62,203.1269 142.61,194.0869 175.25,186.1169 " fill="none" id="t-c" style="stroke:#181818;stroke-width:1.0;"/></g><!--link t to gp--><g id="link_t_gp"><path d="M65.55,180.0969 C78.3,161.2369 95.97,139.7169 117,126.2969 C139.53,111.9169 168.02,103.9969 192.68,99.6369 " fill="none" id="t-gp" style="stroke:#181818;stroke-width:1.0;"/></g><!--reverse link gp to prod--><g id="link_gp_prod"><path d="M327.63,94.2969 C377.3,94.2969 429.91,94.2969 480.25,94.2969 " fill="none" id="gp-backto-prod" style="stroke:#181818;stroke-width:1.0;"/><polygon fill="none" points="309.63,94.2969,327.63,100.2969,327.63,88.2969,309.63,94.2969" style="stroke:#181818;stroke-width:1.0;"/></g><!--reverse link gp to emple--><g id="link_gp_emple"><path d="M312.4294,108.1506 C366.5694,120.2106 439.84,136.5269 495.04,148.8169 " fill="none" id="gp-backto-emple" style="stroke:#181818;stroke-width:1.0;"/><polygon fill="none" points="294.86,104.2369,311.1248,114.007,313.7339,102.2941,294.86,104.2369" style="stroke:#181818;stroke-width:1.0;"/></g><!--link t to ed--><g id="link_t_ed"><path d="M79.16,223.5269 C104.36,227.2169 139.12,232.3069 170.56,236.9169 " fill="none" id="t-ed" style="stroke:#181818;stroke-width:1.0;"/></g><!--reverse link ed to edat--><g id="link_ed_edat"><path d="M347.639,250.978 C378.959,251.558 408.22,251.7669 440.42,251.2969 C450.22,251.1569 460.55,250.9269 470.72,250.6669 " fill="none" id="ed-backto-edat" style="stroke:#181818;stroke-width:1.0;stroke-dasharray:7.0,7.0;"/><polygon fill="#181818" points="341.64,250.8669,350.5644,255.0328,346.6391,250.9595,350.7125,247.0342,341.64,250.8669" style="stroke:#181818;stroke-width:1.0;"/><text fill="#000000" font-family="sans-serif" font-size="13" lengthAdjust="spacing" textLength="51" x="388.42" y="247.3638">extends</text></g><!--link t to ie--><g id="link_t_ie"><path d="M78.71,256.6969 C90.1,267.4269 103.34,278.3269 117,286.2969 C134.46,296.4869 154.68,304.5169 173.95,310.7169 " fill="none" id="t-ie" style="stroke:#181818;stroke-width:1.0;"/></g><!--reverse link c to edat--><g id="link_c_edat"><path d="M324.4367,188.6424 C378.5267,203.4624 446.84,222.1869 494.6,235.2769 " fill="none" id="c-backto-edat" style="stroke:#181818;stroke-width:1.0;stroke-dasharray:7.0,7.0;"/><polygon fill="#181818" points="318.65,187.0569,326.2731,193.2929,323.4723,188.3781,328.3871,185.5773,318.65,187.0569" style="stroke:#181818;stroke-width:1.0;"/><text fill="#000000" font-family="sans-serif" font-size="13" lengthAdjust="spacing" textLength="51" x="388.42" y="204.3638">extends</text></g><!--reverse link ie to edat--><g id="link_ie_edat"><path d="M326.0885,308.2449 C362.0385,298.6849 400.71,288.2769 440.42,277.2969 C458.64,272.2569 478.66,266.5769 496.08,261.5869 " fill="none" id="ie-backto-edat" style="stroke:#181818;stroke-width:1.0;stroke-dasharray:7.0,7.0;"/><polygon fill="#181818" points="320.29,309.7869,330.0157,311.3396,325.1221,308.5019,327.9597,303.6083,320.29,309.7869" style="stroke:#181818;stroke-width:1.0;"/><text fill="#000000" font-family="sans-serif" font-size="13" lengthAdjust="spacing" textLength="51" x="388.42" y="273.3638">extends</text></g><!--SRC=[RL2xJWGn3Epp5TRsTn-0hZiGea2Y07gJ-1QZR99plEB4uz_nPhL5W3InC-FnJ9Gr4XonvWg1uAbck2VnU8tlBj99GJC8ZwyAWOMySauElMQ1uL7m1TymP1a0AwXp2m7JQ8ARngS3EtCbZvLWkAMwAE0wCPOUVP0SPjEk3ItMzVZDL2BPlXMdfUi9Hun-ZYYGyiG9GNk7lcS_SvqnyeVnEPsoJEZDswhzU_EbP54Z1jpiaPKzwMugmXCBaF9v9iKMOGdK1fYS-tPEORSp9-so3nWB7BwiR6ctPetMAEQ40Xps-xRm2kYYb49TGPFq_s1CVnz_0000]--></g></svg>