<?xml version="1.0" encoding="us-ascii" standalone="no"?><svg xmlns="http://www.w3.org/2000/svg" xmlns:xlink="http://www.w3.org/1999/xlink" contentStyleType="text/css" height="645px" preserveAspectRatio="none" style="width:1217px;height:645px;background:#FFFFFF;" version="1.1" viewBox="0 0 1217 645" width="1217px" zoomAndPan="magnify"><defs/><g><text fill="#000000" font-family="sans-serif" font-size="14" font-weight="bold" lengthAdjust="spacing" textLength="202" x="500.5" y="22.9951">Modelo-Vista-Controlador</text><!--cluster view--><g id="cluster_view"><path d="M8.5,43.2969 L46.5,43.2969 A3.75,3.75 0 0 1 49,45.7969 L56,65.5938 L685.5,65.5938 A2.5,2.5 0 0 1 688,68.0938 L688,447.7969 A2.5,2.5 0 0 1 685.5,450.2969 L8.5,450.2969 A2.5,2.5 0 0 1 6,447.7969 L6,45.7969 A2.5,2.5 0 0 1 8.5,43.2969 " fill="none" style="stroke:#000000;stroke-width:1.5;"/><line style="stroke:#000000;stroke-width:1.5;" x1="6" x2="56" y1="65.5938" y2="65.5938"/><text fill="#000000" font-family="sans-serif" font-size="14" font-weight="bold" lengthAdjust="spacing" textLength="37" x="10" y="58.292">view</text></g><!--cluster controller--><g id="cluster_controller"><path d="M430,474.2969 L508,474.2969 A3.75,3.75 0 0 1 510.5,476.7969 L517.5,496.5938 L666,496.5938 A2.5,2.5 0 0 1 668.5,499.0938 L668.5,568.7969 A2.5,2.5 0 0 1 666,571.2969 L430,571.2969 A2.5,2.5 0 0 1 427.5,568.7969 L427.5,476.7969 A2.5,2.5 0 0 1 430,474.2969 " fill="none" style="stroke:#000000;stroke-width:1.5;"/><line style="stroke:#000000;stroke-width:1.5;" x1="427.5" x2="517.5" y1="496.5938" y2="496.5938"/><text fill="#000000" font-family="sans-serif" font-size="14" font-weight="bold" lengthAdjust="spacing" textLength="77" x="431.5" y="489.292">controller</text></g><!--cluster model--><g id="cluster_model"><path d="M747.5,488.2969 L796.5,488.2969 A3.75,3.75 0 0 1 799,490.7969 L806,510.5938 L1207.5,510.5938 A2.5,2.5 0 0 1 1210,513.0938 L1210,635.7969 A2.5,2.5 0 0 1 1207.5,638.2969 L747.5,638.2969 A2.5,2.5 0 0 1 745,635.7969 L745,490.7969 A2.5,2.5 0 0 1 747.5,488.2969 " fill="none" style="stroke:#000000;stroke-width:1.5;"/><line style="stroke:#000000;stroke-width:1.5;" x1="745" x2="806" y1="510.5938" y2="510.5938"/><text fill="#000000" font-family="sans-serif" font-size="14" font-weight="bold" lengthAdjust="spacing" textLength="48" x="749" y="503.292">model</text></g><!--entity inicioController--><g id="elem_inicioController"><rect fill="#F1F1F1" height="62.5938" rx="2.5" ry="2.5" style="stroke:#181818;stroke-width:0.5;" width="174" x="93.5" y="77.9969"/><rect fill="#F1F1F1" height="10" style="stroke:#181818;stroke-width:0.5;" width="15" x="247.5" y="82.9969"/><rect fill="#F1F1F1" height="2" style="stroke:#181818;stroke-width:0.5;" width="4" x="245.5" y="84.9969"/><rect fill="#F1F1F1" height="2" style="stroke:#181818;stroke-width:0.5;" width="4" x="245.5" y="88.9969"/><text fill="#000000" font-family="sans-serif" font-size="14" font-style="italic" lengthAdjust="spacing" textLength="44" x="153.5" y="110.992">&#171;java&#187;</text><text fill="#000000" font-family="sans-serif" font-size="14" lengthAdjust="spacing" textLength="134" x="108.5" y="127.2889">InicioViewController</text></g><!--entity gestionProdController--><g id="elem_gestionProdController"><rect fill="#F1F1F1" height="62.5938" rx="2.5" ry="2.5" style="stroke:#181818;stroke-width:0.5;" width="256" x="52.5" y="175.9969"/><rect fill="#F1F1F1" height="10" style="stroke:#181818;stroke-width:0.5;" width="15" x="288.5" y="180.9969"/><rect fill="#F1F1F1" height="2" style="stroke:#181818;stroke-width:0.5;" width="4" x="286.5" y="182.9969"/><rect fill="#F1F1F1" height="2" style="stroke:#181818;stroke-width:0.5;" width="4" x="286.5" y="186.9969"/><text fill="#000000" font-family="sans-serif" font-size="14" font-style="italic" lengthAdjust="spacing" textLength="44" x="153.5" y="208.992">&#171;java&#187;</text><text fill="#000000" font-family="sans-serif" font-size="14" lengthAdjust="spacing" textLength="216" x="67.5" y="225.2889">GestionProductoViewController</text></g><!--entity gestionEmpController--><g id="elem_gestionEmpController"><rect fill="#F1F1F1" height="62.5938" rx="2.5" ry="2.5" style="stroke:#181818;stroke-width:0.5;" width="262" x="49.5" y="273.9969"/><rect fill="#F1F1F1" height="10" style="stroke:#181818;stroke-width:0.5;" width="15" x="291.5" y="278.9969"/><rect fill="#F1F1F1" height="2" style="stroke:#181818;stroke-width:0.5;" width="4" x="289.5" y="280.9969"/><rect fill="#F1F1F1" height="2" style="stroke:#181818;stroke-width:0.5;" width="4" x="289.5" y="284.9969"/><text fill="#000000" font-family="sans-serif" font-size="14" font-style="italic" lengthAdjust="spacing" textLength="44" x="153.5" y="306.992">&#171;java&#187;</text><text fill="#000000" font-family="sans-serif" font-size="14" lengthAdjust="spacing" textLength="222" x="64.5" y="323.2889">GestionEmpleadoViewController</text></g><!--entity visualizarPrecioVentaProdController--><g id="elem_visualizarPrecioVentaProdController"><rect fill="#F1F1F1" height="62.5938" rx="2.5" ry="2.5" style="stroke:#181818;stroke-width:0.5;" width="317" x="22" y="371.9969"/><rect fill="#F1F1F1" height="10" style="stroke:#181818;stroke-width:0.5;" width="15" x="319" y="376.9969"/><rect fill="#F1F1F1" height="2" style="stroke:#181818;stroke-width:0.5;" width="4" x="317" y="378.9969"/><rect fill="#F1F1F1" height="2" style="stroke:#181818;stroke-width:0.5;" width="4" x="317" y="382.9969"/><text fill="#000000" font-family="sans-serif" font-size="14" font-style="italic" lengthAdjust="spacing" textLength="44" x="153.5" y="404.992">&#171;java&#187;</text><text fill="#000000" font-family="sans-serif" font-size="14" lengthAdjust="spacing" textLength="277" x="37" y="421.2889">VisualizarPrecioVentaProductoController</text></g><!--entity inicioView--><g id="elem_inicioView"><rect fill="#F1F1F1" height="62.5938" rx="2.5" ry="2.5" style="stroke:#181818;stroke-width:0.5;" width="117" x="489.5" y="77.9969"/><rect fill="#F1F1F1" height="10" style="stroke:#181818;stroke-width:0.5;" width="15" x="586.5" y="82.9969"/><rect fill="#F1F1F1" height="2" style="stroke:#181818;stroke-width:0.5;" width="4" x="584.5" y="84.9969"/><rect fill="#F1F1F1" height="2" style="stroke:#181818;stroke-width:0.5;" width="4" x="584.5" y="88.9969"/><text fill="#000000" font-family="sans-serif" font-size="14" font-style="italic" lengthAdjust="spacing" textLength="77" x="504.5" y="110.992">&#171;FXML file&#187;</text><text fill="#000000" font-family="sans-serif" font-size="14" lengthAdjust="spacing" textLength="67" x="509.5" y="127.2889">inicioView</text></g><!--entity gestionProdView--><g id="elem_gestionProdView"><rect fill="#F1F1F1" height="62.5938" rx="2.5" ry="2.5" style="stroke:#181818;stroke-width:0.5;" width="187" x="454.5" y="175.9969"/><rect fill="#F1F1F1" height="10" style="stroke:#181818;stroke-width:0.5;" width="15" x="621.5" y="180.9969"/><rect fill="#F1F1F1" height="2" style="stroke:#181818;stroke-width:0.5;" width="4" x="619.5" y="182.9969"/><rect fill="#F1F1F1" height="2" style="stroke:#181818;stroke-width:0.5;" width="4" x="619.5" y="186.9969"/><text fill="#000000" font-family="sans-serif" font-size="14" font-style="italic" lengthAdjust="spacing" textLength="77" x="504.5" y="208.992">&#171;FXML file&#187;</text><text fill="#000000" font-family="sans-serif" font-size="14" lengthAdjust="spacing" textLength="147" x="469.5" y="225.2889">gestionProductoView</text></g><!--entity gestionEmpView--><g id="elem_gestionEmpView"><rect fill="#F1F1F1" height="62.5938" rx="2.5" ry="2.5" style="stroke:#181818;stroke-width:0.5;" width="193" x="451.5" y="273.9969"/><rect fill="#F1F1F1" height="10" style="stroke:#181818;stroke-width:0.5;" width="15" x="624.5" y="278.9969"/><rect fill="#F1F1F1" height="2" style="stroke:#181818;stroke-width:0.5;" width="4" x="622.5" y="280.9969"/><rect fill="#F1F1F1" height="2" style="stroke:#181818;stroke-width:0.5;" width="4" x="622.5" y="284.9969"/><text fill="#000000" font-family="sans-serif" font-size="14" font-style="italic" lengthAdjust="spacing" textLength="77" x="504.5" y="306.992">&#171;FXML file&#187;</text><text fill="#000000" font-family="sans-serif" font-size="14" lengthAdjust="spacing" textLength="153" x="466.5" y="323.2889">gestionEmpleadoView</text></g><!--entity visualizarPrecioVentaProdView--><g id="elem_visualizarPrecioVentaProdView"><rect fill="#F1F1F1" height="62.5938" rx="2.5" ry="2.5" style="stroke:#181818;stroke-width:0.5;" width="248" x="424" y="371.9969"/><rect fill="#F1F1F1" height="10" style="stroke:#181818;stroke-width:0.5;" width="15" x="652" y="376.9969"/><rect fill="#F1F1F1" height="2" style="stroke:#181818;stroke-width:0.5;" width="4" x="650" y="378.9969"/><rect fill="#F1F1F1" height="2" style="stroke:#181818;stroke-width:0.5;" width="4" x="650" y="382.9969"/><text fill="#000000" font-family="sans-serif" font-size="14" font-style="italic" lengthAdjust="spacing" textLength="77" x="504.5" y="404.992">&#171;FXML file&#187;</text><text fill="#000000" font-family="sans-serif" font-size="14" lengthAdjust="spacing" textLength="208" x="439" y="421.2889">visualizarPrecioVentaProducto</text></g><!--entity mdc--><g id="elem_mdc"><rect fill="#F1F1F1" height="46.2969" rx="2.5" ry="2.5" style="stroke:#181818;stroke-width:0.5;" width="209" x="443.5" y="509.1469"/><rect fill="#F1F1F1" height="10" style="stroke:#181818;stroke-width:0.5;" width="15" x="632.5" y="514.1469"/><rect fill="#F1F1F1" height="2" style="stroke:#181818;stroke-width:0.5;" width="4" x="630.5" y="516.1469"/><rect fill="#F1F1F1" height="2" style="stroke:#181818;stroke-width:0.5;" width="4" x="630.5" y="520.1469"/><text fill="#000000" font-family="sans-serif" font-size="14" lengthAdjust="spacing" textLength="169" x="458.5" y="542.142">SupermercadoController</text></g><!--entity MercaDaw--><g id="elem_MercaDaw"><rect fill="#F1F1F1" height="46.2969" rx="2.5" ry="2.5" style="stroke:#181818;stroke-width:0.5;" width="112" x="761" y="576.1469"/><rect fill="#F1F1F1" height="10" style="stroke:#181818;stroke-width:0.5;" width="15" x="853" y="581.1469"/><rect fill="#F1F1F1" height="2" style="stroke:#181818;stroke-width:0.5;" width="4" x="851" y="583.1469"/><rect fill="#F1F1F1" height="2" style="stroke:#181818;stroke-width:0.5;" width="4" x="851" y="587.1469"/><text fill="#000000" font-family="sans-serif" font-size="14" lengthAdjust="spacing" textLength="72" x="776" y="609.142">MercaDaw</text></g><!--entity Dao--><g id="elem_Dao"><rect fill="#F1F1F1" height="46.2969" rx="2.5" ry="2.5" style="stroke:#181818;stroke-width:0.5;" width="68" x="958" y="576.1469"/><rect fill="#F1F1F1" height="10" style="stroke:#181818;stroke-width:0.5;" width="15" x="1006" y="581.1469"/><rect fill="#F1F1F1" height="2" style="stroke:#181818;stroke-width:0.5;" width="4" x="1004" y="583.1469"/><rect fill="#F1F1F1" height="2" style="stroke:#181818;stroke-width:0.5;" width="4" x="1004" y="587.1469"/><text fill="#000000" font-family="sans-serif" font-size="14" lengthAdjust="spacing" textLength="28" x="973" y="609.142">Dao</text></g><!--entity LectorImp--><g id="elem_LectorImp"><rect fill="#F1F1F1" height="46.2969" rx="2.5" ry="2.5" style="stroke:#181818;stroke-width:0.5;" width="108" x="1086" y="576.1469"/><rect fill="#F1F1F1" height="10" style="stroke:#181818;stroke-width:0.5;" width="15" x="1174" y="581.1469"/><rect fill="#F1F1F1" height="2" style="stroke:#181818;stroke-width:0.5;" width="4" x="1172" y="583.1469"/><rect fill="#F1F1F1" height="2" style="stroke:#181818;stroke-width:0.5;" width="4" x="1172" y="587.1469"/><text fill="#000000" font-family="sans-serif" font-size="14" lengthAdjust="spacing" textLength="68" x="1101" y="609.142">LectorImp</text></g><!--entity dao--><g id="elem_dao"><ellipse cx="992" cy="532.2969" fill="#F1F1F1" rx="8" ry="8" style="stroke:#181818;stroke-width:0.5;"/><text fill="#000000" font-family="sans-serif" font-size="14" lengthAdjust="spacing" textLength="91" x="946.5" y="562.292">MercadoDAO</text></g><!--entity gestion--><g id="elem_gestion"><ellipse cx="817" cy="532.2969" fill="#F1F1F1" rx="8" ry="8" style="stroke:#181818;stroke-width:0.5;"/><text fill="#000000" font-family="sans-serif" font-size="14" lengthAdjust="spacing" textLength="83" x="775.5" y="562.292">Gestionable</text></g><!--entity lectorif--><g id="elem_lectorif"><ellipse cx="1140" cy="532.2969" fill="#F1F1F1" rx="8" ry="8" style="stroke:#181818;stroke-width:0.5;"/><text fill="#000000" font-family="sans-serif" font-size="14" lengthAdjust="spacing" textLength="43" x="1118.5" y="562.292">Lector</text></g><!--link MercaDaw to gestion--><g id="link_MercaDaw_gestion"><path d="M817,575.8669 C817,564.0869 817,550.4869 817,541.6569 " fill="none" id="MercaDaw-gestion" style="stroke:#181818;stroke-width:1.0;"/></g><!--link Dao to dao--><g id="link_Dao_dao"><path d="M992,575.8669 C992,564.0869 992,550.4869 992,541.6569 " fill="none" id="Dao-dao" style="stroke:#181818;stroke-width:1.0;"/></g><!--link LectorImp to lectorif--><g id="link_LectorImp_lectorif"><path d="M1140,575.8669 C1140,564.0869 1140,550.4869 1140,541.6569 " fill="none" id="LectorImp-lectorif" style="stroke:#181818;stroke-width:1.0;"/></g><!--link mdc to gestion--><g id="link_mdc_gestion"><path d="M652.99,532.2969 C714.2,532.2969 778.11,532.2969 801.72,532.2969 " fill="none" id="mdc-to-gestion" style="stroke:#181818;stroke-width:1.0;stroke-dasharray:7.0,7.0;"/><polygon fill="#181818" points="807.72,532.2969,798.72,528.2969,802.72,532.2969,798.72,536.2969,807.72,532.2969" style="stroke:#181818;stroke-width:1.0;"/><text fill="#000000" font-family="sans-serif" font-size="13" lengthAdjust="spacing" textLength="23" x="705" y="528.3638">use</text></g><!--link MercaDaw to dao--><g id="link_MercaDaw_dao"><path d="M873.21,577.9169 C912.97,562.5169 957.3151,545.3441 976.9351,537.7441 " fill="none" id="MercaDaw-to-dao" style="stroke:#181818;stroke-width:1.0;stroke-dasharray:7.0,7.0;"/><polygon fill="#181818" points="982.53,535.5769,972.6928,535.0978,977.8676,537.3829,975.5825,542.5577,982.53,535.5769" style="stroke:#181818;stroke-width:1.0;"/><text fill="#000000" font-family="sans-serif" font-size="13" lengthAdjust="spacing" textLength="23" x="904" y="554.3638">use</text></g><!--link inicioController to inicioView--><g id="link_inicioController_inicioView"><path d="M267.66,109.2969 C335.93,109.2969 423.45,109.2969 483.05,109.2969 " fill="none" id="inicioController-to-inicioView" style="stroke:#181818;stroke-width:1.0;stroke-dasharray:7.0,7.0;"/><polygon fill="#181818" points="489.05,109.2969,480.05,105.2969,484.05,109.2969,480.05,113.2969,489.05,109.2969" style="stroke:#181818;stroke-width:1.0;"/><text fill="#000000" font-family="sans-serif" font-size="13" lengthAdjust="spacing" textLength="23" x="370" y="105.3638">use</text></g><!--link gestionProdController to gestionProdView--><g id="link_gestionProdController_gestionProdView"><path d="M308.82,207.2969 C356.62,207.2969 404,207.2969 448.1,207.2969 " fill="none" id="gestionProdController-to-gestionProdView" style="stroke:#181818;stroke-width:1.0;stroke-dasharray:7.0,7.0;"/><polygon fill="#181818" points="454.1,207.2969,445.1,203.2969,449.1,207.2969,445.1,211.2969,454.1,207.2969" style="stroke:#181818;stroke-width:1.0;"/><text fill="#000000" font-family="sans-serif" font-size="13" lengthAdjust="spacing" textLength="23" x="370" y="203.3638">use</text></g><!--link gestionEmpController to gestionEmpView--><g id="link_gestionEmpController_gestionEmpView"><path d="M311.91,305.2969 C357.83,305.2969 402.57,305.2969 445.12,305.2969 " fill="none" id="gestionEmpController-to-gestionEmpView" style="stroke:#181818;stroke-width:1.0;stroke-dasharray:7.0,7.0;"/><polygon fill="#181818" points="451.12,305.2969,442.12,301.2969,446.12,305.2969,442.12,309.2969,451.12,305.2969" style="stroke:#181818;stroke-width:1.0;"/><text fill="#000000" font-family="sans-serif" font-size="13" lengthAdjust="spacing" textLength="23" x="370" y="301.3638">use</text></g><!--link visualizarPrecioVentaProdController to visualizarPrecioVentaProdView--><g id="link_visualizarPrecioVentaProdController_visualizarPrecioVentaProdView"><path d="M339.32,400.2269 C357.75,400.1169 376.29,400.1269 394,400.2969 C403.7,400.3969 407.7408,400.4217 417.8308,400.5817 " fill="none" id="visualizarPrecioVentaProdController-to-visualizarPrecioVentaProdView" style="stroke:#181818;stroke-width:1.0;stroke-dasharray:7.0,7.0;"/><polygon fill="#181818" points="423.83,400.6769,414.8946,396.5347,418.8306,400.5976,414.7677,404.5337,423.83,400.6769" style="stroke:#181818;stroke-width:1.0;"/><text fill="#000000" font-family="sans-serif" font-size="13" lengthAdjust="spacing" textLength="23" x="370" y="396.3638">use</text></g><!--link visualizarPrecioVentaProdController to mdc--><g id="link_visualizarPrecioVentaProdController_mdc"><path d="M200.96,434.9169 C230.7,479.8669 292.2,560.3069 369,592.2969 C419.73,613.4269 475.8576,584.1632 511.6776,559.3532 " fill="none" id="visualizarPrecioVentaProdController-to-mdc" style="stroke:#181818;stroke-width:1.0;stroke-dasharray:7.0,7.0;"/><polygon fill="#181818" points="516.61,555.9369,506.9338,557.7731,512.4997,558.7838,511.4889,564.3496,516.61,555.9369" style="stroke:#181818;stroke-width:1.0;"/><text fill="#000000" font-family="sans-serif" font-size="13" lengthAdjust="spacing" textLength="23" x="370" y="588.3638">use</text></g><!--link gestionProdController to mdc--><g id="link_gestionProdController_mdc"><path d="M308.78,232.0169 C320.19,238.3869 330.59,246.3469 339,256.2969 C403.27,332.3369 304.46,402.4869 369,478.2969 C387.84,500.4269 409.6563,512.0344 437.5263,519.9144 " fill="none" id="gestionProdController-to-mdc" style="stroke:#181818;stroke-width:1.0;stroke-dasharray:7.0,7.0;"/><polygon fill="#181818" points="443.3,521.5469,435.7278,515.2491,438.4886,520.1865,433.5512,522.9473,443.3,521.5469" style="stroke:#181818;stroke-width:1.0;"/><text fill="#000000" font-family="sans-serif" font-size="13" lengthAdjust="spacing" textLength="23" x="370" y="474.3638">use</text></g><!--link gestionEmpController to mdc--><g id="link_gestionEmpController_mdc"><path d="M311.85,332.1969 C322.01,338.1669 331.29,345.4469 339,354.2969 C392.57,415.7769 306.81,482.5669 369,535.2969 C394.22,556.6869 423.5,560.3589 455.97,556.5889 " fill="none" id="gestionEmpController-to-mdc" style="stroke:#181818;stroke-width:1.0;stroke-dasharray:7.0,7.0;"/><polygon fill="#181818" points="461.93,555.8969,452.5287,552.9616,456.9634,556.4735,453.4514,560.9082,461.93,555.8969" style="stroke:#181818;stroke-width:1.0;"/><text fill="#000000" font-family="sans-serif" font-size="13" lengthAdjust="spacing" textLength="23" x="370" y="531.3638">use</text></g><!--link inicioController to mdc--><g id="link_inicioController_mdc"><path d="M267.82,117.7369 C294.41,124.6669 321.31,136.8869 339,158.2969 C415.06,250.3569 304.49,324.8069 369,425.2969 C394.32,464.7369 434.3376,489.3017 472.9976,506.3017 " fill="none" id="inicioController-to-mdc" style="stroke:#181818;stroke-width:1.0;stroke-dasharray:7.0,7.0;"/><polygon fill="#181818" points="478.49,508.7169,471.8615,501.4325,473.913,506.7042,468.6412,508.7557,478.49,508.7169" style="stroke:#181818;stroke-width:1.0;"/><text fill="#000000" font-family="sans-serif" font-size="13" lengthAdjust="spacing" textLength="23" x="370" y="421.3638">use</text></g><!--link dao to lectorif--><g id="link_dao_lectorif"><path d="M1001.27,532.2969 C1026.97,532.2969 1099.25,532.2969 1124.82,532.2969 " fill="none" id="dao-to-lectorif" style="stroke:#181818;stroke-width:1.0;stroke-dasharray:7.0,7.0;"/><polygon fill="#181818" points="1130.82,532.2969,1121.82,528.2969,1125.82,532.2969,1121.82,536.2969,1130.82,532.2969" style="stroke:#181818;stroke-width:1.0;"/></g><!--SRC=[ZLF1QiCm3BtdAqHFsw7zW58AOzr6eM65GTdLSzpKcnC7nybWO_y-sKaSrscQvXIazvwa9rbpBHZ4Cc52pW-yr6J-A7Ejf229L95WHmrQWkBfIKF25QEQopmg2FqYAOEQi-_V2F2ZCYjapd8DsvnJBW-OQPK4Kx1QVPAQhDT0Ik0Mq2S3_WihJOszaab5zJMXj4TEgJrbXM0uqhGQ8aV5qA2A2Fv3r1wTm24nIBf6HsJhCOvN9IZ3dOEezFmUx-381VFDCxc0b0vj6x8zqBY4xzMe188kADJN31fgZSAjz5_axemwhy9hUwiAfZAcA3RiRG35iuJw4fcvyP0T6-A6X6DiY8GWjCFBbsgR5SsoxkvX5ZTLDm-lCrCl8TAbsgiZ7uBDFDDSlb6pAM5_-R7HxHg2ES9ybcd9nBeghXyRxKLmOXmS5ejrHuSbL2MBdB99eKeRjcBXYxIO_j8Qf05UV75-iMvv0yhPi_8PxI7rX1iUZELVFHvlk5lrqBRbz9m6DJtR6UgYkmuHcLsOIBV3Vm00]--></g></svg>