<?xml version="1.0" encoding="us-ascii" standalone="no"?><svg xmlns="http://www.w3.org/2000/svg" xmlns:xlink="http://www.w3.org/1999/xlink" contentStyleType="text/css" height="586px" preserveAspectRatio="none" style="width:914px;height:586px;background:#FFFFFF;" version="1.1" viewBox="0 0 914 586" width="914px" zoomAndPan="magnify"><defs/><g><text fill="#000000" font-family="sans-serif" font-size="14" font-weight="bold" lengthAdjust="spacing" textLength="202" x="349" y="22.9951">Modelo-Vista-Controlador</text><!--cluster view--><g id="cluster_view"><path d="M8.5,43.2969 L46.5,43.2969 A3.75,3.75 0 0 1 49,45.7969 L56,65.5938 L575.5,65.5938 A2.5,2.5 0 0 1 578,68.0938 L578,349.7969 A2.5,2.5 0 0 1 575.5,352.2969 L8.5,352.2969 A2.5,2.5 0 0 1 6,349.7969 L6,45.7969 A2.5,2.5 0 0 1 8.5,43.2969 " fill="none" style="stroke:#000000;stroke-width:1.5;"/><line style="stroke:#000000;stroke-width:1.5;" x1="6" x2="56" y1="65.5938" y2="65.5938"/><text fill="#000000" font-family="sans-serif" font-size="14" font-weight="bold" lengthAdjust="spacing" textLength="37" x="10" y="58.292">view</text></g><!--cluster controller--><g id="cluster_controller"><path d="M362.5,376.2969 L440.5,376.2969 A3.75,3.75 0 0 1 443,378.7969 L450,398.5938 L568.5,398.5938 A2.5,2.5 0 0 1 571,401.0938 L571,470.7969 A2.5,2.5 0 0 1 568.5,473.2969 L362.5,473.2969 A2.5,2.5 0 0 1 360,470.7969 L360,378.7969 A2.5,2.5 0 0 1 362.5,376.2969 " fill="none" style="stroke:#000000;stroke-width:1.5;"/><line style="stroke:#000000;stroke-width:1.5;" x1="360" x2="450" y1="398.5938" y2="398.5938"/><text fill="#000000" font-family="sans-serif" font-size="14" font-weight="bold" lengthAdjust="spacing" textLength="77" x="364" y="391.292">controller</text></g><!--cluster model--><g id="cluster_model"><path d="M637.5,342.2969 L686.5,342.2969 A3.75,3.75 0 0 1 689,344.7969 L696,364.5938 L904.5,364.5938 A2.5,2.5 0 0 1 907,367.0938 L907,570.7969 A2.5,2.5 0 0 1 904.5,573.2969 L637.5,573.2969 A2.5,2.5 0 0 1 635,570.7969 L635,344.7969 A2.5,2.5 0 0 1 637.5,342.2969 " fill="none" style="stroke:#000000;stroke-width:1.5;"/><line style="stroke:#000000;stroke-width:1.5;" x1="635" x2="696" y1="364.5938" y2="364.5938"/><text fill="#000000" font-family="sans-serif" font-size="14" font-weight="bold" lengthAdjust="spacing" textLength="48" x="639" y="357.292">model</text></g><!--entity inicioController--><g id="elem_inicioController"><rect fill="#F1F1F1" height="62.5938" rx="2.5" ry="2.5" style="stroke:#181818;stroke-width:0.5;" width="174" x="66" y="77.9969"/><rect fill="#F1F1F1" height="10" style="stroke:#181818;stroke-width:0.5;" width="15" x="220" y="82.9969"/><rect fill="#F1F1F1" height="2" style="stroke:#181818;stroke-width:0.5;" width="4" x="218" y="84.9969"/><rect fill="#F1F1F1" height="2" style="stroke:#181818;stroke-width:0.5;" width="4" x="218" y="88.9969"/><text fill="#000000" font-family="sans-serif" font-size="14" font-style="italic" lengthAdjust="spacing" textLength="44" x="126" y="110.992">&#171;java&#187;</text><text fill="#000000" font-family="sans-serif" font-size="14" lengthAdjust="spacing" textLength="134" x="81" y="127.2889">InicioViewController</text></g><!--entity gestionProdController--><g id="elem_gestionProdController"><rect fill="#F1F1F1" height="62.5938" rx="2.5" ry="2.5" style="stroke:#181818;stroke-width:0.5;" width="256" x="25" y="175.9969"/><rect fill="#F1F1F1" height="10" style="stroke:#181818;stroke-width:0.5;" width="15" x="261" y="180.9969"/><rect fill="#F1F1F1" height="2" style="stroke:#181818;stroke-width:0.5;" width="4" x="259" y="182.9969"/><rect fill="#F1F1F1" height="2" style="stroke:#181818;stroke-width:0.5;" width="4" x="259" y="186.9969"/><text fill="#000000" font-family="sans-serif" font-size="14" font-style="italic" lengthAdjust="spacing" textLength="44" x="126" y="208.992">&#171;java&#187;</text><text fill="#000000" font-family="sans-serif" font-size="14" lengthAdjust="spacing" textLength="216" x="40" y="225.2889">GestionProductoViewController</text></g><!--entity gestionEmpController--><g id="elem_gestionEmpController"><rect fill="#F1F1F1" height="62.5938" rx="2.5" ry="2.5" style="stroke:#181818;stroke-width:0.5;" width="262" x="22" y="273.9969"/><rect fill="#F1F1F1" height="10" style="stroke:#181818;stroke-width:0.5;" width="15" x="264" y="278.9969"/><rect fill="#F1F1F1" height="2" style="stroke:#181818;stroke-width:0.5;" width="4" x="262" y="280.9969"/><rect fill="#F1F1F1" height="2" style="stroke:#181818;stroke-width:0.5;" width="4" x="262" y="284.9969"/><text fill="#000000" font-family="sans-serif" font-size="14" font-style="italic" lengthAdjust="spacing" textLength="44" x="126" y="306.992">&#171;java&#187;</text><text fill="#000000" font-family="sans-serif" font-size="14" lengthAdjust="spacing" textLength="222" x="37" y="323.2889">GestionEmpleadoViewController</text></g><!--entity inicioView--><g id="elem_inicioView"><rect fill="#F1F1F1" height="62.5938" rx="2.5" ry="2.5" style="stroke:#181818;stroke-width:0.5;" width="117" x="407" y="77.9969"/><rect fill="#F1F1F1" height="10" style="stroke:#181818;stroke-width:0.5;" width="15" x="504" y="82.9969"/><rect fill="#F1F1F1" height="2" style="stroke:#181818;stroke-width:0.5;" width="4" x="502" y="84.9969"/><rect fill="#F1F1F1" height="2" style="stroke:#181818;stroke-width:0.5;" width="4" x="502" y="88.9969"/><text fill="#000000" font-family="sans-serif" font-size="14" font-style="italic" lengthAdjust="spacing" textLength="77" x="422" y="110.992">&#171;FXML file&#187;</text><text fill="#000000" font-family="sans-serif" font-size="14" lengthAdjust="spacing" textLength="67" x="427" y="127.2889">inicioView</text></g><!--entity gestionProdView--><g id="elem_gestionProdView"><rect fill="#F1F1F1" height="62.5938" rx="2.5" ry="2.5" style="stroke:#181818;stroke-width:0.5;" width="187" x="372" y="175.9969"/><rect fill="#F1F1F1" height="10" style="stroke:#181818;stroke-width:0.5;" width="15" x="539" y="180.9969"/><rect fill="#F1F1F1" height="2" style="stroke:#181818;stroke-width:0.5;" width="4" x="537" y="182.9969"/><rect fill="#F1F1F1" height="2" style="stroke:#181818;stroke-width:0.5;" width="4" x="537" y="186.9969"/><text fill="#000000" font-family="sans-serif" font-size="14" font-style="italic" lengthAdjust="spacing" textLength="77" x="422" y="208.992">&#171;FXML file&#187;</text><text fill="#000000" font-family="sans-serif" font-size="14" lengthAdjust="spacing" textLength="147" x="387" y="225.2889">gestionProductoView</text></g><!--entity gestionEmpView--><g id="elem_gestionEmpView"><rect fill="#F1F1F1" height="62.5938" rx="2.5" ry="2.5" style="stroke:#181818;stroke-width:0.5;" width="193" x="369" y="273.9969"/><rect fill="#F1F1F1" height="10" style="stroke:#181818;stroke-width:0.5;" width="15" x="542" y="278.9969"/><rect fill="#F1F1F1" height="2" style="stroke:#181818;stroke-width:0.5;" width="4" x="540" y="280.9969"/><rect fill="#F1F1F1" height="2" style="stroke:#181818;stroke-width:0.5;" width="4" x="540" y="284.9969"/><text fill="#000000" font-family="sans-serif" font-size="14" font-style="italic" lengthAdjust="spacing" textLength="77" x="422" y="306.992">&#171;FXML file&#187;</text><text fill="#000000" font-family="sans-serif" font-size="14" lengthAdjust="spacing" textLength="153" x="384" y="323.2889">gestionEmpleadoView</text></g><!--entity mdc--><g id="elem_mdc"><rect fill="#F1F1F1" height="46.2969" rx="2.5" ry="2.5" style="stroke:#181818;stroke-width:0.5;" width="179" x="376" y="411.1469"/><rect fill="#F1F1F1" height="10" style="stroke:#181818;stroke-width:0.5;" width="15" x="535" y="416.1469"/><rect fill="#F1F1F1" height="2" style="stroke:#181818;stroke-width:0.5;" width="4" x="533" y="418.1469"/><rect fill="#F1F1F1" height="2" style="stroke:#181818;stroke-width:0.5;" width="4" x="533" y="422.1469"/><text fill="#000000" font-family="sans-serif" font-size="14" lengthAdjust="spacing" textLength="139" x="391" y="444.142">MercaDawController</text></g><!--entity MercaDaw--><g id="elem_MercaDaw"><rect fill="#F1F1F1" height="46.2969" rx="2.5" ry="2.5" style="stroke:#181818;stroke-width:0.5;" width="112" x="651" y="478.1469"/><rect fill="#F1F1F1" height="10" style="stroke:#181818;stroke-width:0.5;" width="15" x="743" y="483.1469"/><rect fill="#F1F1F1" height="2" style="stroke:#181818;stroke-width:0.5;" width="4" x="741" y="485.1469"/><rect fill="#F1F1F1" height="2" style="stroke:#181818;stroke-width:0.5;" width="4" x="741" y="489.1469"/><text fill="#000000" font-family="sans-serif" font-size="14" lengthAdjust="spacing" textLength="72" x="666" y="511.142">MercaDaw</text></g><!--entity Dao--><g id="elem_Dao"><rect fill="#F1F1F1" height="46.2969" rx="2.5" ry="2.5" style="stroke:#181818;stroke-width:0.5;" width="68" x="823" y="458.1469"/><rect fill="#F1F1F1" height="10" style="stroke:#181818;stroke-width:0.5;" width="15" x="871" y="463.1469"/><rect fill="#F1F1F1" height="2" style="stroke:#181818;stroke-width:0.5;" width="4" x="869" y="465.1469"/><rect fill="#F1F1F1" height="2" style="stroke:#181818;stroke-width:0.5;" width="4" x="869" y="469.1469"/><text fill="#000000" font-family="sans-serif" font-size="14" lengthAdjust="spacing" textLength="28" x="838" y="491.142">Dao</text></g><!--entity Util--><g id="elem_Util"><rect fill="#F1F1F1" height="46.2969" rx="2.5" ry="2.5" style="stroke:#181818;stroke-width:0.5;" width="61" x="826.5" y="377.1469"/><rect fill="#F1F1F1" height="10" style="stroke:#181818;stroke-width:0.5;" width="15" x="867.5" y="382.1469"/><rect fill="#F1F1F1" height="2" style="stroke:#181818;stroke-width:0.5;" width="4" x="865.5" y="384.1469"/><rect fill="#F1F1F1" height="2" style="stroke:#181818;stroke-width:0.5;" width="4" x="865.5" y="388.1469"/><text fill="#000000" font-family="sans-serif" font-size="14" lengthAdjust="spacing" textLength="21" x="841.5" y="410.142">Util</text></g><!--entity dao--><g id="elem_dao"><ellipse cx="857" cy="548.2969" fill="#F1F1F1" rx="8" ry="8" style="stroke:#181818;stroke-width:0.5;"/><text fill="#000000" font-family="sans-serif" font-size="14" lengthAdjust="spacing" textLength="91" x="811.5" y="578.292">MercadoDAO</text></g><!--entity gestion--><g id="elem_gestion"><ellipse cx="707" cy="434.2969" fill="#F1F1F1" rx="8" ry="8" style="stroke:#181818;stroke-width:0.5;"/><text fill="#000000" font-family="sans-serif" font-size="14" lengthAdjust="spacing" textLength="83" x="665.5" y="464.292">Gestionable</text></g><!--link MercaDaw to gestion--><g id="link_MercaDaw_gestion"><path d="M707,477.8669 C707,466.0869 707,452.4869 707,443.6569 " fill="none" id="MercaDaw-gestion" style="stroke:#181818;stroke-width:1.0;"/></g><!--link Dao to dao--><g id="link_Dao_dao"><path d="M857,504.6669 C857,516.4769 857,530.1369 857,538.9769 " fill="none" id="Dao-dao" style="stroke:#181818;stroke-width:1.0;"/></g><!--link mdc to gestion--><g id="link_mdc_gestion"><path d="M555.34,434.2969 C610.45,434.2969 668.94,434.2969 691.61,434.2969 " fill="none" id="mdc-to-gestion" style="stroke:#181818;stroke-width:1.0;stroke-dasharray:7.0,7.0;"/><polygon fill="#181818" points="697.61,434.2969,688.61,430.2969,692.61,434.2969,688.61,438.2969,697.61,434.2969" style="stroke:#181818;stroke-width:1.0;"/><text fill="#000000" font-family="sans-serif" font-size="13" lengthAdjust="spacing" textLength="23" x="595" y="430.3638">use</text></g><!--link inicioController to inicioView--><g id="link_inicioController_inicioView"><path d="M240.49,109.2969 C293.61,109.2969 354.18,109.2969 400.89,109.2969 " fill="none" id="inicioController-to-inicioView" style="stroke:#181818;stroke-width:1.0;stroke-dasharray:7.0,7.0;"/><polygon fill="#181818" points="406.89,109.2969,397.89,105.2969,401.89,109.2969,397.89,113.2969,406.89,109.2969" style="stroke:#181818;stroke-width:1.0;"/><text fill="#000000" font-family="sans-serif" font-size="13" lengthAdjust="spacing" textLength="23" x="315" y="105.3638">use</text></g><!--link gestionProdController to gestionProdView--><g id="link_gestionProdController_gestionProdView"><path d="M281.19,207.2969 C311.5,207.2969 337.29,207.2969 365.73,207.2969 " fill="none" id="gestionProdController-to-gestionProdView" style="stroke:#181818;stroke-width:1.0;stroke-dasharray:7.0,7.0;"/><polygon fill="#181818" points="371.73,207.2969,362.73,203.2969,366.73,207.2969,362.73,211.2969,371.73,207.2969" style="stroke:#181818;stroke-width:1.0;"/><text fill="#000000" font-family="sans-serif" font-size="13" lengthAdjust="spacing" textLength="23" x="315" y="203.3638">use</text></g><!--link gestionEmpController to gestionEmpView--><g id="link_gestionEmpController_gestionEmpView"><path d="M284.33,305.2969 C312.71,305.2969 336.23,305.2969 362.96,305.2969 " fill="none" id="gestionEmpController-to-gestionEmpView" style="stroke:#181818;stroke-width:1.0;stroke-dasharray:7.0,7.0;"/><polygon fill="#181818" points="368.96,305.2969,359.96,301.2969,363.96,305.2969,359.96,309.2969,368.96,305.2969" style="stroke:#181818;stroke-width:1.0;"/><text fill="#000000" font-family="sans-serif" font-size="13" lengthAdjust="spacing" textLength="23" x="315" y="301.3638">use</text></g><!--link gestionProdController to mdc--><g id="link_gestionProdController_mdc"><path d="M264.5,239.0469 C271.73,243.9869 278.35,249.6969 284,256.2969 C326.51,305.9669 268.16,353.6869 314,400.2969 C330.34,416.9169 347.0985,424.8852 369.8285,429.8552 " fill="none" id="gestionProdController-to-mdc" style="stroke:#181818;stroke-width:1.0;stroke-dasharray:7.0,7.0;"/><polygon fill="#181818" points="375.69,431.1369,367.7522,425.3067,370.8054,430.0688,366.0433,433.1221,375.69,431.1369" style="stroke:#181818;stroke-width:1.0;"/><text fill="#000000" font-family="sans-serif" font-size="13" lengthAdjust="spacing" textLength="23" x="315" y="396.3638">use</text></g><!--link gestionEmpController to mdc--><g id="link_gestionEmpController_mdc"><path d="M175.56,337.0569 C202.8,374.0369 253.51,433.1469 314,457.2969 C342.11,468.5169 369.3694,466.5926 397.3394,459.3926 " fill="none" id="gestionEmpController-to-mdc" style="stroke:#181818;stroke-width:1.0;stroke-dasharray:7.0,7.0;"/><polygon fill="#181818" points="403.15,457.8969,393.437,456.2668,398.3079,459.1433,395.4313,464.0142,403.15,457.8969" style="stroke:#181818;stroke-width:1.0;"/><text fill="#000000" font-family="sans-serif" font-size="13" lengthAdjust="spacing" textLength="23" x="315" y="453.3638">use</text></g><!--link inicioController to mdc--><g id="link_inicioController_mdc"><path d="M240.43,127.5369 C256.95,134.6569 272.62,144.5469 284,158.2969 C333.48,218.0669 272.16,264.9369 314,330.2969 C337.12,366.4069 372.3853,390.5723 405.5953,407.9723 " fill="none" id="inicioController-to-mdc" style="stroke:#181818;stroke-width:1.0;stroke-dasharray:7.0,7.0;"/><polygon fill="#181818" points="410.91,410.7569,404.7943,403.0369,406.4811,408.4364,401.0816,410.1231,410.91,410.7569" style="stroke:#181818;stroke-width:1.0;"/><text fill="#000000" font-family="sans-serif" font-size="13" lengthAdjust="spacing" textLength="23" x="315" y="326.3638">use</text></g><!--link gestion to dao--><g id="link_gestion_dao"><path d="M716.33,437.1569 C727.56,441.2369 747.89,449.4669 763,460.2969 C794.17,482.6269 794.54,496.5969 823,522.2969 C831.01,529.5369 835.9849,533.4936 842.8049,538.5936 " fill="none" id="gestion-to-dao" style="stroke:#181818;stroke-width:1.0;stroke-dasharray:7.0,7.0;"/><polygon fill="#181818" points="847.61,542.1869,842.7979,533.5936,843.6058,539.1925,838.0069,540.0004,847.61,542.1869" style="stroke:#181818;stroke-width:1.0;"/></g><!--link gestion to Util--><g id="link_gestion_Util"><path d="M716.38,432.3669 C737.11,427.6069 785.7525,416.4412 820.2025,408.5212 " fill="none" id="gestion-to-Util" style="stroke:#181818;stroke-width:1.0;stroke-dasharray:7.0,7.0;"/><polygon fill="#181818" points="826.05,407.1769,816.3826,405.2951,821.1771,408.2971,818.175,413.0917,826.05,407.1769" style="stroke:#181818;stroke-width:1.0;"/></g><!--SRC=[ZLBBJiCm4BpdArOvmI7z05HLGXGG4X5SgBWQUviQd6pbkEM0-7UyURfkqv9RTcTcFJlhj3C8EIaqbArqxKHsHvMpP8GYcnXSEt04LXSR1qfRb4vJbMo5_185mbxZzqy2_fDKRgd2oi5JfQMcbUzqIWOjpEUVOYyM2n0rw0OmDYF-8zOyuzMIsabtJgWOaPVKxikjGM_fiff71cAHcXwyUUh3U_uCQsqmjCMzY5GS6pfc1w1fYT35f8G7DGg_oH2J70p5OULefLYAS2TUgLGof9Ty7bFCgBmK157fpMdJBlBg6jA6fsXv-vBoA2LeQ7LPYG-3QM2evVRp8FFGliCDdiWrLk9N-yV3RBReCN03kngJLYG-lGOu1jT26NZoj4BPFgWZoi7zX8mkb-uvvuTu3_yGFa2Tj3OWaduRNELDXVySq1y0]--></g></svg>